inDegrees=no
num_controls=7
num_derivatives=13
num_iterations=141
num_multipliers=7
num_parameters=0
num_slacks=7
num_states=26
objective=4.975262
objective_accelerations=0.451420
objective_balance=0.040160
objective_effort=0.235860
objective_height=4.226229
objective_ligament=0.021595
solver_duration=1578.282978
status=Solve_Succeeded
success=true
DataType=double
version=3
OpenSimVersion=4.4-2022-07-23-0e9fedc
endheader
time	/jointset/ground_pelvis/pelvis_tilt/value	/jointset/ground_pelvis/pelvis_tx/value	/jointset/ground_pelvis/pelvis_ty/value	/jointset/hip_l/hip_flexion_l/value	/jointset/hip_l/hip_adduction_l/value	/jointset/hip_l/hip_rotation_l/value	/jointset/back/lumbar_extension/value	/jointset/patellofemoral_l/patellar_flexion_l/value	/jointset/knee_l/knee_flexion_l/value	/jointset/knee_l/knee_adduction_l/value	/jointset/knee_l/knee_rotation_l/value	/jointset/ankle_l/ankle_angle_l/value	/jointset/subtalar_l/subtalar_angle_l/value	/jointset/ground_pelvis/pelvis_tilt/speed	/jointset/ground_pelvis/pelvis_tx/speed	/jointset/ground_pelvis/pelvis_ty/speed	/jointset/hip_l/hip_flexion_l/speed	/jointset/hip_l/hip_adduction_l/speed	/jointset/hip_l/hip_rotation_l/speed	/jointset/back/lumbar_extension/speed	/jointset/patellofemoral_l/patellar_flexion_l/speed	/jointset/knee_l/knee_flexion_l/speed	/jointset/knee_l/knee_adduction_l/speed	/jointset/knee_l/knee_rotation_l/speed	/jointset/ankle_l/ankle_angle_l/speed	/jointset/subtalar_l/subtalar_angle_l/speed	/forceset/tau_hip_flexion_l	/forceset/tau_hip_adduction_l	/forceset/tau_hip_rotation_l	/forceset/tau_knee_flexion_l	/forceset/tau_ankle_angle_l	/forceset/tau_subtalar_angle_l	/forceset/tau_lumbar_extension	lambda_cid13_p0	lambda_cid13_p1	lambda_cid13_p2	lambda_cid13_p3	lambda_cid13_p4	lambda_cid13_p5	lambda_cid14_p0	/jointset/ground_pelvis/pelvis_tilt/accel	/jointset/ground_pelvis/pelvis_tx/accel	/jointset/ground_pelvis/pelvis_ty/accel	/jointset/hip_l/hip_flexion_l/accel	/jointset/hip_l/hip_adduction_l/accel	/jointset/hip_l/hip_rotation_l/accel	/jointset/back/lumbar_extension/accel	/jointset/patellofemoral_l/patellar_flexion_l/accel	/jointset/knee_l/knee_flexion_l/accel	/jointset/knee_l/knee_adduction_l/accel	/jointset/knee_l/knee_rotation_l/accel	/jointset/ankle_l/ankle_angle_l/accel	/jointset/subtalar_l/subtalar_angle_l/accel	gamma_cid13_p0	gamma_cid13_p1	gamma_cid13_p2	gamma_cid13_p3	gamma_cid13_p4	gamma_cid13_p5	gamma_cid14_p0
1	-0.5645228036308095	-0.09694077336639995	0.6654698071180802	1.585747924124379	-0.4739590764943212	-0.1018370874391455	-0.2617981219152154	1.031523199884369	1.031523199884369	-0.174215049810029	-0.174531493519349	0.08118732545811436	-0.09053892361739806	-0.01561688118480364	0.01172849040551974	0.002672396793913357	-0.00162462066959058	-0.0006136342429725007	0.0008926866504795209	-7.565649438030364e-06	0.002313981645944248	0.002313981645944372	-0.000443173213341921	-3.442595214691087e-05	0.02020420473699458	0.009241955124539968	-0.3246719545656359	0.03031805416252146	-0.003438359254736241	-0.2215863244172099	0.06318697810767238	0.06206920464217434	0.2769120533314743	-18.69321328888502	-26.16463129727968	6.669364377782677	-0.1466230712263799	-616.2273656833448	-57.9061553600781	-15.39487743974517	1.882208347113705	0.4803822006311385	1.365216354655152	-5.775403910984204	0.1864681844199937	-1.966715720508299	-0.02061008936239557	-3.869162986775295	-3.869162986775299	-0.04767502014077516	-0.01788874766341244	-0.4373682666920997	0.02057849672325073	3.155577645013897e-09	1.092919577186314e-08	-7.096005024993862e-09	2.238032491087237e-09	-1.144275331703241e-09	1.220298088907676e-08	2.002695973213496e-09
1.01	-0.5645858990045463	-0.09679954798635663	0.6655646376517019	1.585444423698769	-0.4739551776084606	-0.1019265784437641	-0.2617981375308727	1.031353074865804	1.031353074865835	-0.1742203922775308	-0.1745319850671283	0.08136762334900638	-0.09044461429213439	0.002997724274760234	0.01651731982619679	0.01629049395130297	-0.05906801326065787	0.001398486781081736	-0.01877925641275062	1.808322445889197e-06	-0.03633662159827736	-0.03633662159827823	-0.0006261185997204679	-5.407449225358656e-05	0.0158537171035504	0.009624625566026565	-0.3245514179159989	0.03040122747481793	-0.003431787726935792	-0.2214577078832637	0.06299502136562217	0.0620544260842496	0.276819224695246	-18.74202564941755	-26.15228515906903	6.670387488941825	-0.1790506668143107	-616.0798561736843	-57.9115226592312	-15.40239468996432	1.851073898414369	0.4782437434970692	1.359622743105076	-5.727689800774589	0.2093459617246519	-1.965690696215919	0.0113160095985699	-3.862653885900467	-3.862653885900588	-0.003724637198068583	0.007470647571245425	-0.4341371616975712	0.04781710015056933	-1.022912741310814e-09	4.020431107928122e-09	7.846163435863966e-09	1.493603007780072e-09	-6.230346649082414e-09	2.210591526322122e-08	-2.668961118268201e-09
1.02	-0.5644628508730792	-0.09661041222596439	0.6657955524262607	1.584566712773734	-0.4739310051322897	-0.1022124402984111	-0.2617981384328744	1.030796514836263	1.030796514836324	-0.1742275882667056	-0.1745323783894392	0.08150436673355951	-0.09034633710599772	0.02161181985579836	0.02131056647530247	0.02988924498160173	-0.1164667205559918	0.003441083818192625	-0.03838148335540639	-4.622940276427094e-06	-0.07497302054869465	-0.07497302054869648	-0.000813877558560435	-1.478084213573425e-05	0.0114933034690293	0.01003552729908487	-0.3244308812663225	0.0304844007871356	-0.003425216198887083	-0.2213290913493426	0.06280306462357069	0.06203964752634469	0.2767263960590546	-18.7966826984285	-26.1394463874036	6.671938216645657	-0.2073726975304419	-616.0262145232517	-57.91662482368002	-15.42684608540709	1.882106371408528	0.4812656463168783	1.361347129236988	-5.766466851837533	0.1925633870313364	-1.952772496393373	-0.02377113628360317	-3.866322128014441	-3.866322128014442	-0.04863773463308067	-0.006100309618456449	-0.439353466907462	0.02622475503761749	-5.698154302809189e-09	-6.34195894553408e-09	2.022781104071945e-08	-3.144146183621506e-10	-1.153264742047922e-08	3.239762787285579e-08	-7.894544450587843e-09
1.03	-0.5641537008760272	-0.09637331707688451	0.6661622871558133	1.583115397235137	-0.4738863064481185	-0.1026941316230005	-0.2617982434639962	1.029853773858193	1.029853773858255	-0.1742366575712249	-0.1745323237260664	0.0815974039613702	-0.09024389249424544	0.04021365624787415	0.0261096009756575	0.04344737660063442	-0.1737720830429852	0.005499257406656149	-0.05796054800202356	-1.428939896206289e-05	-0.1135617346460746	-0.1135617346460753	-0.0009968041482389749	1.254036905476032e-05	0.007107377019606865	0.01045069778857586	-0.3240015884962886	0.03057525317431471	-0.003422199563331105	-0.2210976620625169	0.06258647539192323	0.06202748551248531	0.2764180170565313	-18.84105898597649	-26.13195913877832	6.677100784323242	-0.2438187682615206	-615.6677084672416	-57.95869659987407	-15.46825194503747	1.848542227573935	0.4793925595735533	1.351494129429483	-5.708927184074149	0.2125355755881231	-1.961047193678338	0.01074968336694839	-3.853127330716962	-3.853127330716802	-0.002647973944649866	0.005181013883471365	-0.4392274559428823	0.04875755947463876	-1.037846475385016e-08	-1.673959007439964e-08	3.258333088173816e-08	-2.13328518473739e-09	-1.683715461487621e-08	4.269330760734228e-08	-1.312578009148747e-08
